<mxfile host="Electron" modified="2024-03-12T04:14:52.999Z" agent="Mozilla/5.0 (Windows NT 10.0; Win64; x64) AppleWebKit/537.36 (KHTML, like Gecko) draw.io/22.0.2 Chrome/114.0.5735.289 Electron/25.8.4 Safari/537.36" etag="9SQv00gJ4eBVZVMnlTmH" version="22.0.2" type="device">
  <diagram name="Halaman-1" id="n6BdFJVsVMhO4AajaaAj">
    <mxGraphModel dx="1577" dy="1826" grid="1" gridSize="10" guides="1" tooltips="1" connect="1" arrows="1" fold="1" page="1" pageScale="1" pageWidth="850" pageHeight="1100" background="none" math="0" shadow="0">
      <root>
        <mxCell id="0" />
        <mxCell id="1" parent="0" />
        <mxCell id="hx1APyoLTkQgSNQUR30y-4" value="" style="edgeStyle=orthogonalEdgeStyle;rounded=0;orthogonalLoop=1;jettySize=auto;html=1;entryX=0.5;entryY=0;entryDx=0;entryDy=0;" parent="1" source="hx1APyoLTkQgSNQUR30y-77" target="hx1APyoLTkQgSNQUR30y-23" edge="1">
          <mxGeometry relative="1" as="geometry">
            <mxPoint x="420" y="360" as="targetPoint" />
          </mxGeometry>
        </mxCell>
        <mxCell id="bYialJ0p8NS-JbuUhh9z-1" value="Start" style="ellipse;whiteSpace=wrap;html=1;" parent="1" vertex="1">
          <mxGeometry x="360" y="-80" width="120" height="80" as="geometry" />
        </mxCell>
        <mxCell id="hx1APyoLTkQgSNQUR30y-45" style="edgeStyle=orthogonalEdgeStyle;rounded=0;orthogonalLoop=1;jettySize=auto;html=1;exitX=0.375;exitY=1;exitDx=0;exitDy=0;" parent="1" source="hx1APyoLTkQgSNQUR30y-9" target="hx1APyoLTkQgSNQUR30y-46" edge="1">
          <mxGeometry relative="1" as="geometry">
            <mxPoint x="400" y="1760" as="targetPoint" />
            <Array as="points">
              <mxPoint x="405" y="1480" />
              <mxPoint x="405" y="1480" />
            </Array>
          </mxGeometry>
        </mxCell>
        <mxCell id="LiYuRrTCJ78NySymOLZK-2" value="" style="edgeStyle=orthogonalEdgeStyle;rounded=0;orthogonalLoop=1;jettySize=auto;html=1;" parent="1" source="hx1APyoLTkQgSNQUR30y-9" target="LiYuRrTCJ78NySymOLZK-1" edge="1">
          <mxGeometry relative="1" as="geometry" />
        </mxCell>
        <mxCell id="hx1APyoLTkQgSNQUR30y-9" value="Perulangan coba &amp;lt;=3" style="shape=hexagon;perimeter=hexagonPerimeter2;whiteSpace=wrap;html=1;fixedSize=1;" parent="1" vertex="1">
          <mxGeometry x="365" y="440" width="120" height="80" as="geometry" />
        </mxCell>
        <mxCell id="hx1APyoLTkQgSNQUR30y-14" value="" style="edgeStyle=orthogonalEdgeStyle;rounded=0;orthogonalLoop=1;jettySize=auto;html=1;" parent="1" source="hx1APyoLTkQgSNQUR30y-11" target="hx1APyoLTkQgSNQUR30y-13" edge="1">
          <mxGeometry relative="1" as="geometry" />
        </mxCell>
        <mxCell id="hx1APyoLTkQgSNQUR30y-11" value="Masukkan Username:" style="shape=parallelogram;perimeter=parallelogramPerimeter;whiteSpace=wrap;html=1;fixedSize=1;" parent="1" vertex="1">
          <mxGeometry x="1092.19" y="745" width="150" height="60" as="geometry" />
        </mxCell>
        <mxCell id="hx1APyoLTkQgSNQUR30y-13" value="Masukkan Password:&amp;nbsp;" style="shape=parallelogram;perimeter=parallelogramPerimeter;whiteSpace=wrap;html=1;fixedSize=1;" parent="1" vertex="1">
          <mxGeometry x="1089.69" y="840" width="155" height="80" as="geometry" />
        </mxCell>
        <mxCell id="hx1APyoLTkQgSNQUR30y-18" value="" style="edgeStyle=orthogonalEdgeStyle;rounded=0;orthogonalLoop=1;jettySize=auto;html=1;" parent="1" source="hx1APyoLTkQgSNQUR30y-15" target="hx1APyoLTkQgSNQUR30y-17" edge="1">
          <mxGeometry relative="1" as="geometry" />
        </mxCell>
        <mxCell id="hx1APyoLTkQgSNQUR30y-20" value="" style="edgeStyle=orthogonalEdgeStyle;rounded=0;orthogonalLoop=1;jettySize=auto;html=1;" parent="1" source="hx1APyoLTkQgSNQUR30y-15" target="hx1APyoLTkQgSNQUR30y-19" edge="1">
          <mxGeometry relative="1" as="geometry" />
        </mxCell>
        <mxCell id="hx1APyoLTkQgSNQUR30y-15" value="Jika variable x == username dan variable y == username" style="rhombus;whiteSpace=wrap;html=1;" parent="1" vertex="1">
          <mxGeometry x="1067.5" y="1045" width="215" height="130" as="geometry" />
        </mxCell>
        <mxCell id="hx1APyoLTkQgSNQUR30y-17" value="Login Anda Berhasil!!" style="shape=parallelogram;perimeter=parallelogramPerimeter;whiteSpace=wrap;html=1;fixedSize=1;" parent="1" vertex="1">
          <mxGeometry x="1330" y="1185" width="120" height="60" as="geometry" />
        </mxCell>
        <mxCell id="hx1APyoLTkQgSNQUR30y-19" value="username dan password anda salah silahkan masukkan ulang!" style="shape=parallelogram;perimeter=parallelogramPerimeter;whiteSpace=wrap;html=1;fixedSize=1;" parent="1" vertex="1">
          <mxGeometry x="900" y="1185" width="160" height="75" as="geometry" />
        </mxCell>
        <mxCell id="LiYuRrTCJ78NySymOLZK-10" style="edgeStyle=orthogonalEdgeStyle;rounded=0;orthogonalLoop=1;jettySize=auto;html=1;exitX=0.5;exitY=1;exitDx=0;exitDy=0;entryX=0.5;entryY=0;entryDx=0;entryDy=0;" parent="1" source="hx1APyoLTkQgSNQUR30y-23" target="hx1APyoLTkQgSNQUR30y-9" edge="1">
          <mxGeometry relative="1" as="geometry" />
        </mxCell>
        <mxCell id="hx1APyoLTkQgSNQUR30y-23" value="coba = 0" style="rounded=0;whiteSpace=wrap;html=1;" parent="1" vertex="1">
          <mxGeometry x="360" y="360" width="120" height="60" as="geometry" />
        </mxCell>
        <mxCell id="hx1APyoLTkQgSNQUR30y-38" value="" style="edgeStyle=orthogonalEdgeStyle;rounded=0;orthogonalLoop=1;jettySize=auto;html=1;" parent="1" source="hx1APyoLTkQgSNQUR30y-24" target="hx1APyoLTkQgSNQUR30y-37" edge="1">
          <mxGeometry relative="1" as="geometry" />
        </mxCell>
        <mxCell id="LiYuRrTCJ78NySymOLZK-25" style="edgeStyle=orthogonalEdgeStyle;rounded=0;orthogonalLoop=1;jettySize=auto;html=1;exitX=0.5;exitY=1;exitDx=0;exitDy=0;" parent="1" source="hx1APyoLTkQgSNQUR30y-24" edge="1">
          <mxGeometry relative="1" as="geometry">
            <mxPoint x="1189.8235294117649" y="1640" as="targetPoint" />
          </mxGeometry>
        </mxCell>
        <mxCell id="hx1APyoLTkQgSNQUR30y-24" value="jika coba &amp;gt;=3" style="rhombus;whiteSpace=wrap;html=1;" parent="1" vertex="1">
          <mxGeometry x="1150" y="1365" width="80" height="80" as="geometry" />
        </mxCell>
        <mxCell id="hx1APyoLTkQgSNQUR30y-30" value="" style="endArrow=none;html=1;rounded=0;entryX=0.5;entryY=1;entryDx=0;entryDy=0;" parent="1" target="hx1APyoLTkQgSNQUR30y-19" edge="1">
          <mxGeometry width="50" height="50" relative="1" as="geometry">
            <mxPoint x="980" y="1325" as="sourcePoint" />
            <mxPoint x="960" y="1275" as="targetPoint" />
          </mxGeometry>
        </mxCell>
        <mxCell id="hx1APyoLTkQgSNQUR30y-31" value="" style="endArrow=none;html=1;rounded=0;entryX=0.5;entryY=1;entryDx=0;entryDy=0;" parent="1" target="hx1APyoLTkQgSNQUR30y-17" edge="1">
          <mxGeometry width="50" height="50" relative="1" as="geometry">
            <mxPoint x="1390" y="1325" as="sourcePoint" />
            <mxPoint x="1260" y="1245" as="targetPoint" />
          </mxGeometry>
        </mxCell>
        <mxCell id="hx1APyoLTkQgSNQUR30y-33" value="" style="endArrow=none;html=1;rounded=0;" parent="1" edge="1">
          <mxGeometry width="50" height="50" relative="1" as="geometry">
            <mxPoint x="980" y="1325" as="sourcePoint" />
            <mxPoint x="1390" y="1325" as="targetPoint" />
          </mxGeometry>
        </mxCell>
        <mxCell id="hx1APyoLTkQgSNQUR30y-34" value="" style="endArrow=classic;html=1;rounded=0;" parent="1" edge="1">
          <mxGeometry width="50" height="50" relative="1" as="geometry">
            <mxPoint x="1390" y="1325" as="sourcePoint" />
            <mxPoint x="1380" y="1325" as="targetPoint" />
          </mxGeometry>
        </mxCell>
        <mxCell id="hx1APyoLTkQgSNQUR30y-35" value="" style="endArrow=classic;html=1;rounded=0;" parent="1" edge="1">
          <mxGeometry width="50" height="50" relative="1" as="geometry">
            <mxPoint x="980" y="1325" as="sourcePoint" />
            <mxPoint x="990" y="1325" as="targetPoint" />
          </mxGeometry>
        </mxCell>
        <mxCell id="hx1APyoLTkQgSNQUR30y-36" value="" style="endArrow=classic;html=1;rounded=0;entryX=0.5;entryY=0;entryDx=0;entryDy=0;" parent="1" target="hx1APyoLTkQgSNQUR30y-24" edge="1">
          <mxGeometry width="50" height="50" relative="1" as="geometry">
            <mxPoint x="1190" y="1325" as="sourcePoint" />
            <mxPoint x="1200" y="1395" as="targetPoint" />
          </mxGeometry>
        </mxCell>
        <mxCell id="LiYuRrTCJ78NySymOLZK-24" style="edgeStyle=orthogonalEdgeStyle;rounded=0;orthogonalLoop=1;jettySize=auto;html=1;exitX=0.5;exitY=1;exitDx=0;exitDy=0;" parent="1" source="hx1APyoLTkQgSNQUR30y-37" edge="1">
          <mxGeometry relative="1" as="geometry">
            <mxPoint x="1352.4285714285716" y="1640" as="targetPoint" />
          </mxGeometry>
        </mxCell>
        <mxCell id="hx1APyoLTkQgSNQUR30y-37" value="Anda sudah 3x percobaan akun anda telah terblokir" style="shape=parallelogram;perimeter=parallelogramPerimeter;whiteSpace=wrap;html=1;fixedSize=1;" parent="1" vertex="1">
          <mxGeometry x="1282.5" y="1460" width="140" height="70" as="geometry" />
        </mxCell>
        <mxCell id="hx1APyoLTkQgSNQUR30y-43" value="" style="endArrow=none;html=1;rounded=0;" parent="1" edge="1">
          <mxGeometry width="50" height="50" relative="1" as="geometry">
            <mxPoint x="440" y="1680" as="sourcePoint" />
            <mxPoint x="1260" y="1680" as="targetPoint" />
          </mxGeometry>
        </mxCell>
        <mxCell id="hx1APyoLTkQgSNQUR30y-44" value="" style="endArrow=classic;html=1;rounded=0;entryX=0.625;entryY=1;entryDx=0;entryDy=0;" parent="1" target="hx1APyoLTkQgSNQUR30y-9" edge="1">
          <mxGeometry width="50" height="50" relative="1" as="geometry">
            <mxPoint x="440" y="1680.952380952381" as="sourcePoint" />
            <mxPoint x="510" y="820" as="targetPoint" />
          </mxGeometry>
        </mxCell>
        <mxCell id="hx1APyoLTkQgSNQUR30y-51" value="" style="edgeStyle=orthogonalEdgeStyle;rounded=0;orthogonalLoop=1;jettySize=auto;html=1;" parent="1" source="hx1APyoLTkQgSNQUR30y-46" target="hx1APyoLTkQgSNQUR30y-49" edge="1">
          <mxGeometry relative="1" as="geometry" />
        </mxCell>
        <mxCell id="hx1APyoLTkQgSNQUR30y-125" style="edgeStyle=orthogonalEdgeStyle;rounded=0;orthogonalLoop=1;jettySize=auto;html=1;exitX=0.375;exitY=1;exitDx=0;exitDy=0;" parent="1" source="hx1APyoLTkQgSNQUR30y-46" target="hx1APyoLTkQgSNQUR30y-126" edge="1">
          <mxGeometry relative="1" as="geometry">
            <mxPoint x="385" y="3640" as="targetPoint" />
          </mxGeometry>
        </mxCell>
        <mxCell id="hx1APyoLTkQgSNQUR30y-46" value="do main menu" style="shape=hexagon;perimeter=hexagonPerimeter2;whiteSpace=wrap;html=1;fixedSize=1;" parent="1" vertex="1">
          <mxGeometry x="340" y="1720" width="120" height="80" as="geometry" />
        </mxCell>
        <mxCell id="hx1APyoLTkQgSNQUR30y-54" value="" style="edgeStyle=orthogonalEdgeStyle;rounded=0;orthogonalLoop=1;jettySize=auto;html=1;" parent="1" source="hx1APyoLTkQgSNQUR30y-49" target="hx1APyoLTkQgSNQUR30y-53" edge="1">
          <mxGeometry relative="1" as="geometry" />
        </mxCell>
        <mxCell id="hx1APyoLTkQgSNQUR30y-49" value="&lt;p class=&quot;MsoNormal&quot;&gt;===== Menu Admin Batagor =====&lt;/p&gt;&lt;p class=&quot;MsoNormal&quot;&gt;1. Tampilkan Menu Batagor Palembang&lt;/p&gt;&lt;p class=&quot;MsoNormal&quot;&gt;2. Tambahkan Menu Batagor Palembang&lt;/p&gt;&lt;p class=&quot;MsoNormal&quot;&gt;3. Memperbarui Menu Batagor Palembang&lt;/p&gt;&lt;p class=&quot;MsoNormal&quot;&gt;4. Hapus Menu Batagor Palembang&lt;/p&gt;&lt;p class=&quot;MsoNormal&quot;&gt;5. Keluar dari menu admin&lt;/p&gt;" style="shape=parallelogram;perimeter=parallelogramPerimeter;whiteSpace=wrap;html=1;fixedSize=1;" parent="1" vertex="1">
          <mxGeometry x="1369.5" y="1840" width="257" height="160" as="geometry" />
        </mxCell>
        <mxCell id="hx1APyoLTkQgSNQUR30y-56" value="" style="edgeStyle=orthogonalEdgeStyle;rounded=0;orthogonalLoop=1;jettySize=auto;html=1;" parent="1" source="hx1APyoLTkQgSNQUR30y-53" target="hx1APyoLTkQgSNQUR30y-55" edge="1">
          <mxGeometry relative="1" as="geometry" />
        </mxCell>
        <mxCell id="hx1APyoLTkQgSNQUR30y-53" value="Pilihan menu&amp;nbsp; (1-5) :&amp;nbsp;" style="shape=parallelogram;perimeter=parallelogramPerimeter;whiteSpace=wrap;html=1;fixedSize=1;" parent="1" vertex="1">
          <mxGeometry x="1430.5" y="2050" width="135" height="70" as="geometry" />
        </mxCell>
        <mxCell id="hx1APyoLTkQgSNQUR30y-79" value="" style="edgeStyle=orthogonalEdgeStyle;rounded=0;orthogonalLoop=1;jettySize=auto;html=1;" parent="1" source="hx1APyoLTkQgSNQUR30y-55" target="hx1APyoLTkQgSNQUR30y-78" edge="1">
          <mxGeometry relative="1" as="geometry" />
        </mxCell>
        <mxCell id="hx1APyoLTkQgSNQUR30y-55" value="switch pilih menu" style="rhombus;whiteSpace=wrap;html=1;" parent="1" vertex="1">
          <mxGeometry x="1458" y="2195" width="80" height="80" as="geometry" />
        </mxCell>
        <mxCell id="hx1APyoLTkQgSNQUR30y-65" value="" style="edgeStyle=orthogonalEdgeStyle;rounded=0;orthogonalLoop=1;jettySize=auto;html=1;" parent="1" target="hx1APyoLTkQgSNQUR30y-68" edge="1">
          <mxGeometry relative="1" as="geometry">
            <mxPoint x="1663.0526315789473" y="2265" as="sourcePoint" />
            <mxPoint x="1663" y="2320" as="targetPoint" />
          </mxGeometry>
        </mxCell>
        <mxCell id="hx1APyoLTkQgSNQUR30y-115" style="edgeStyle=orthogonalEdgeStyle;rounded=0;orthogonalLoop=1;jettySize=auto;html=1;" parent="1" edge="1">
          <mxGeometry relative="1" as="geometry">
            <mxPoint x="1879.9990909090905" y="3120" as="targetPoint" />
            <mxPoint x="1880.09" y="2680" as="sourcePoint" />
          </mxGeometry>
        </mxCell>
        <mxCell id="hx1APyoLTkQgSNQUR30y-69" style="edgeStyle=orthogonalEdgeStyle;rounded=0;orthogonalLoop=1;jettySize=auto;html=1;exitX=1;exitY=0.5;exitDx=0;exitDy=0;entryX=0.5;entryY=0;entryDx=0;entryDy=0;" parent="1" source="hx1APyoLTkQgSNQUR30y-68" target="Jy2GWXh8RBpag4Zw7KA4-1" edge="1">
          <mxGeometry relative="1" as="geometry">
            <mxPoint x="1853" y="2400" as="targetPoint" />
          </mxGeometry>
        </mxCell>
        <mxCell id="hx1APyoLTkQgSNQUR30y-72" value="" style="edgeStyle=orthogonalEdgeStyle;rounded=0;orthogonalLoop=1;jettySize=auto;html=1;" parent="1" source="hx1APyoLTkQgSNQUR30y-68" target="hx1APyoLTkQgSNQUR30y-71" edge="1">
          <mxGeometry relative="1" as="geometry" />
        </mxCell>
        <mxCell id="hx1APyoLTkQgSNQUR30y-68" value="Case 1" style="rhombus;whiteSpace=wrap;html=1;" parent="1" vertex="1">
          <mxGeometry x="1623" y="2300" width="80" height="80" as="geometry" />
        </mxCell>
        <mxCell id="hx1APyoLTkQgSNQUR30y-74" value="" style="edgeStyle=orthogonalEdgeStyle;rounded=0;orthogonalLoop=1;jettySize=auto;html=1;entryX=0.5;entryY=0;entryDx=0;entryDy=0;" parent="1" source="hx1APyoLTkQgSNQUR30y-71" target="Jy2GWXh8RBpag4Zw7KA4-13" edge="1">
          <mxGeometry relative="1" as="geometry">
            <mxPoint x="1573.0526315789475" y="2490" as="targetPoint" />
          </mxGeometry>
        </mxCell>
        <mxCell id="hx1APyoLTkQgSNQUR30y-85" value="" style="edgeStyle=orthogonalEdgeStyle;rounded=0;orthogonalLoop=1;jettySize=auto;html=1;" parent="1" source="hx1APyoLTkQgSNQUR30y-71" target="hx1APyoLTkQgSNQUR30y-84" edge="1">
          <mxGeometry relative="1" as="geometry" />
        </mxCell>
        <mxCell id="hx1APyoLTkQgSNQUR30y-71" value="Case 2" style="rhombus;whiteSpace=wrap;html=1;" parent="1" vertex="1">
          <mxGeometry x="1289.5" y="2400" width="80" height="80" as="geometry" />
        </mxCell>
        <mxCell id="hx1APyoLTkQgSNQUR30y-75" value="String x,y" style="html=1;whiteSpace=wrap;aspect=fixed;shape=isoRectangle;" parent="1" vertex="1">
          <mxGeometry x="1099.69" y="940" width="150" height="90" as="geometry" />
        </mxCell>
        <mxCell id="hx1APyoLTkQgSNQUR30y-76" value="string Username, password, pilih" style="html=1;whiteSpace=wrap;aspect=fixed;shape=isoRectangle;" parent="1" vertex="1">
          <mxGeometry x="345" y="150" width="150" height="90" as="geometry" />
        </mxCell>
        <mxCell id="hx1APyoLTkQgSNQUR30y-78" value="int pilih" style="html=1;whiteSpace=wrap;aspect=fixed;shape=isoRectangle;" parent="1" vertex="1">
          <mxGeometry x="1588" y="2190" width="150" height="90" as="geometry" />
        </mxCell>
        <mxCell id="hx1APyoLTkQgSNQUR30y-114" style="edgeStyle=orthogonalEdgeStyle;rounded=0;orthogonalLoop=1;jettySize=auto;html=1;" parent="1" edge="1">
          <mxGeometry relative="1" as="geometry">
            <mxPoint x="1497.7090909090905" y="3120" as="targetPoint" />
            <mxPoint x="1498" y="2760" as="sourcePoint" />
          </mxGeometry>
        </mxCell>
        <mxCell id="hx1APyoLTkQgSNQUR30y-87" value="" style="edgeStyle=orthogonalEdgeStyle;rounded=0;orthogonalLoop=1;jettySize=auto;html=1;" parent="1" source="hx1APyoLTkQgSNQUR30y-84" target="hx1APyoLTkQgSNQUR30y-86" edge="1">
          <mxGeometry relative="1" as="geometry" />
        </mxCell>
        <mxCell id="hx1APyoLTkQgSNQUR30y-93" value="" style="edgeStyle=orthogonalEdgeStyle;rounded=0;orthogonalLoop=1;jettySize=auto;html=1;" parent="1" source="hx1APyoLTkQgSNQUR30y-84" target="hx1APyoLTkQgSNQUR30y-92" edge="1">
          <mxGeometry relative="1" as="geometry" />
        </mxCell>
        <mxCell id="hx1APyoLTkQgSNQUR30y-84" value="Case 3" style="rhombus;whiteSpace=wrap;html=1;" parent="1" vertex="1">
          <mxGeometry x="1005" y="2498" width="80" height="80" as="geometry" />
        </mxCell>
        <mxCell id="hx1APyoLTkQgSNQUR30y-89" value="" style="edgeStyle=orthogonalEdgeStyle;rounded=0;orthogonalLoop=1;jettySize=auto;html=1;" parent="1" edge="1">
          <mxGeometry relative="1" as="geometry">
            <mxPoint x="1200.069259259259" y="2648" as="sourcePoint" />
            <mxPoint x="1200" y="2740" as="targetPoint" />
            <Array as="points">
              <mxPoint x="1200" y="2728" />
            </Array>
          </mxGeometry>
        </mxCell>
        <mxCell id="hx1APyoLTkQgSNQUR30y-86" value="Masukkan Index Yang ingin di ubah:&amp;nbsp;" style="shape=parallelogram;perimeter=parallelogramPerimeter;whiteSpace=wrap;html=1;fixedSize=1;" parent="1" vertex="1">
          <mxGeometry x="1130" y="2580" width="142.5" height="68" as="geometry" />
        </mxCell>
        <mxCell id="Jy2GWXh8RBpag4Zw7KA4-26" style="edgeStyle=orthogonalEdgeStyle;rounded=0;orthogonalLoop=1;jettySize=auto;html=1;exitX=0.5;exitY=1;exitDx=0;exitDy=0;" parent="1" source="hx1APyoLTkQgSNQUR30y-90" edge="1">
          <mxGeometry relative="1" as="geometry">
            <mxPoint x="1200.8695652173915" y="3121.7391304347825" as="targetPoint" />
          </mxGeometry>
        </mxCell>
        <mxCell id="hx1APyoLTkQgSNQUR30y-90" value="&lt;div&gt;Masukkan Menu Batagor Baru :&amp;nbsp;&lt;/div&gt;" style="shape=parallelogram;perimeter=parallelogramPerimeter;whiteSpace=wrap;html=1;fixedSize=1;" parent="1" vertex="1">
          <mxGeometry x="1130.31" y="2743" width="141.87" height="70" as="geometry" />
        </mxCell>
        <mxCell id="hx1APyoLTkQgSNQUR30y-95" value="" style="edgeStyle=orthogonalEdgeStyle;rounded=0;orthogonalLoop=1;jettySize=auto;html=1;" parent="1" source="Jy2GWXh8RBpag4Zw7KA4-31" target="Jy2GWXh8RBpag4Zw7KA4-28" edge="1">
          <mxGeometry relative="1" as="geometry">
            <mxPoint x="882.2665217391307" y="2681" as="targetPoint" />
          </mxGeometry>
        </mxCell>
        <mxCell id="hx1APyoLTkQgSNQUR30y-101" value="" style="edgeStyle=orthogonalEdgeStyle;rounded=0;orthogonalLoop=1;jettySize=auto;html=1;" parent="1" source="hx1APyoLTkQgSNQUR30y-92" target="hx1APyoLTkQgSNQUR30y-100" edge="1">
          <mxGeometry relative="1" as="geometry" />
        </mxCell>
        <mxCell id="hx1APyoLTkQgSNQUR30y-92" value="Case 4" style="rhombus;whiteSpace=wrap;html=1;" parent="1" vertex="1">
          <mxGeometry x="762.31" y="2590" width="80" height="80" as="geometry" />
        </mxCell>
        <mxCell id="hx1APyoLTkQgSNQUR30y-105" value="" style="edgeStyle=orthogonalEdgeStyle;rounded=0;orthogonalLoop=1;jettySize=auto;html=1;" parent="1" source="hx1APyoLTkQgSNQUR30y-100" target="hx1APyoLTkQgSNQUR30y-104" edge="1">
          <mxGeometry relative="1" as="geometry" />
        </mxCell>
        <mxCell id="Jy2GWXh8RBpag4Zw7KA4-41" style="edgeStyle=orthogonalEdgeStyle;rounded=0;orthogonalLoop=1;jettySize=auto;html=1;exitX=0;exitY=0.5;exitDx=0;exitDy=0;entryX=0.5;entryY=0;entryDx=0;entryDy=0;" parent="1" source="hx1APyoLTkQgSNQUR30y-100" target="hx1APyoLTkQgSNQUR30y-102" edge="1">
          <mxGeometry relative="1" as="geometry" />
        </mxCell>
        <mxCell id="hx1APyoLTkQgSNQUR30y-100" value="Case 5" style="rhombus;whiteSpace=wrap;html=1;" parent="1" vertex="1">
          <mxGeometry x="505" y="2683" width="80" height="80" as="geometry" />
        </mxCell>
        <mxCell id="Jy2GWXh8RBpag4Zw7KA4-42" style="edgeStyle=orthogonalEdgeStyle;rounded=0;orthogonalLoop=1;jettySize=auto;html=1;exitX=0.5;exitY=1;exitDx=0;exitDy=0;" parent="1" source="hx1APyoLTkQgSNQUR30y-102" edge="1">
          <mxGeometry relative="1" as="geometry">
            <mxPoint x="480" y="3000" as="targetPoint" />
          </mxGeometry>
        </mxCell>
        <mxCell id="hx1APyoLTkQgSNQUR30y-102" value="Pilihan Anda tidak vakid" style="shape=parallelogram;perimeter=parallelogramPerimeter;whiteSpace=wrap;html=1;fixedSize=1;" parent="1" vertex="1">
          <mxGeometry x="420" y="2789" width="120" height="60" as="geometry" />
        </mxCell>
        <mxCell id="Jy2GWXh8RBpag4Zw7KA4-43" style="edgeStyle=orthogonalEdgeStyle;rounded=0;orthogonalLoop=1;jettySize=auto;html=1;exitX=0.5;exitY=1;exitDx=0;exitDy=0;" parent="1" source="hx1APyoLTkQgSNQUR30y-104" edge="1">
          <mxGeometry relative="1" as="geometry">
            <mxPoint x="647.5" y="3000" as="targetPoint" />
          </mxGeometry>
        </mxCell>
        <mxCell id="hx1APyoLTkQgSNQUR30y-104" value="anda keluar dari program" style="shape=parallelogram;perimeter=parallelogramPerimeter;whiteSpace=wrap;html=1;fixedSize=1;" parent="1" vertex="1">
          <mxGeometry x="587.5" y="2789" width="120" height="60" as="geometry" />
        </mxCell>
        <mxCell id="hx1APyoLTkQgSNQUR30y-112" style="edgeStyle=orthogonalEdgeStyle;rounded=0;orthogonalLoop=1;jettySize=auto;html=1;" parent="1" edge="1">
          <mxGeometry relative="1" as="geometry">
            <mxPoint x="920.363636363636" y="3120" as="targetPoint" />
            <mxPoint x="920" y="3000" as="sourcePoint" />
          </mxGeometry>
        </mxCell>
        <mxCell id="hx1APyoLTkQgSNQUR30y-116" value="" style="endArrow=none;html=1;rounded=0;" parent="1" edge="1">
          <mxGeometry width="50" height="50" relative="1" as="geometry">
            <mxPoint x="560" y="3120" as="sourcePoint" />
            <mxPoint x="1880" y="3120" as="targetPoint" />
          </mxGeometry>
        </mxCell>
        <mxCell id="hx1APyoLTkQgSNQUR30y-118" value="" style="endArrow=none;html=1;rounded=0;" parent="1" edge="1">
          <mxGeometry width="50" height="50" relative="1" as="geometry">
            <mxPoint x="1240" y="3480" as="sourcePoint" />
            <mxPoint x="1240" y="3120" as="targetPoint" />
          </mxGeometry>
        </mxCell>
        <mxCell id="hx1APyoLTkQgSNQUR30y-119" value="" style="endArrow=classic;html=1;rounded=0;" parent="1" edge="1">
          <mxGeometry width="50" height="50" relative="1" as="geometry">
            <mxPoint x="560" y="3120" as="sourcePoint" />
            <mxPoint x="587.5" y="3120" as="targetPoint" />
          </mxGeometry>
        </mxCell>
        <mxCell id="hx1APyoLTkQgSNQUR30y-120" value="" style="endArrow=classic;html=1;rounded=0;" parent="1" edge="1">
          <mxGeometry width="50" height="50" relative="1" as="geometry">
            <mxPoint x="1880" y="3120" as="sourcePoint" />
            <mxPoint x="1860" y="3120" as="targetPoint" />
          </mxGeometry>
        </mxCell>
        <mxCell id="hx1APyoLTkQgSNQUR30y-121" value="" style="endArrow=classic;html=1;rounded=0;" parent="1" edge="1">
          <mxGeometry width="50" height="50" relative="1" as="geometry">
            <mxPoint x="1240" y="3130" as="sourcePoint" />
            <mxPoint x="1240" y="3520" as="targetPoint" />
          </mxGeometry>
        </mxCell>
        <mxCell id="hx1APyoLTkQgSNQUR30y-122" value="" style="endArrow=none;html=1;rounded=0;" parent="1" edge="1">
          <mxGeometry width="50" height="50" relative="1" as="geometry">
            <mxPoint x="420" y="3520" as="sourcePoint" />
            <mxPoint x="1240" y="3520" as="targetPoint" />
            <Array as="points">
              <mxPoint x="850" y="3520" />
            </Array>
          </mxGeometry>
        </mxCell>
        <mxCell id="hx1APyoLTkQgSNQUR30y-123" value="" style="endArrow=classic;html=1;rounded=0;entryX=0.625;entryY=1;entryDx=0;entryDy=0;" parent="1" target="hx1APyoLTkQgSNQUR30y-46" edge="1">
          <mxGeometry width="50" height="50" relative="1" as="geometry">
            <mxPoint x="420" y="3520" as="sourcePoint" />
            <mxPoint x="510" y="2010" as="targetPoint" />
          </mxGeometry>
        </mxCell>
        <mxCell id="hx1APyoLTkQgSNQUR30y-124" value="" style="endArrow=classic;html=1;rounded=0;" parent="1" edge="1">
          <mxGeometry width="50" height="50" relative="1" as="geometry">
            <mxPoint x="419.71" y="3520" as="sourcePoint" />
            <mxPoint x="419.84999999999997" y="3480" as="targetPoint" />
          </mxGeometry>
        </mxCell>
        <mxCell id="hx1APyoLTkQgSNQUR30y-126" value="end" style="ellipse;whiteSpace=wrap;html=1;" parent="1" vertex="1">
          <mxGeometry x="325" y="3600" width="120" height="80" as="geometry" />
        </mxCell>
        <mxCell id="hx1APyoLTkQgSNQUR30y-127" value="True" style="text;html=1;align=center;verticalAlign=middle;resizable=0;points=[];autosize=1;strokeColor=none;fillColor=none;" parent="1" vertex="1">
          <mxGeometry x="570" y="440" width="50" height="30" as="geometry" />
        </mxCell>
        <mxCell id="hx1APyoLTkQgSNQUR30y-128" value="False" style="text;html=1;align=center;verticalAlign=middle;resizable=0;points=[];autosize=1;strokeColor=none;fillColor=none;" parent="1" vertex="1">
          <mxGeometry x="993" y="1085" width="50" height="30" as="geometry" />
        </mxCell>
        <mxCell id="hx1APyoLTkQgSNQUR30y-129" value="True" style="text;html=1;align=center;verticalAlign=middle;resizable=0;points=[];autosize=1;strokeColor=none;fillColor=none;" parent="1" vertex="1">
          <mxGeometry x="1303" y="1085" width="50" height="30" as="geometry" />
        </mxCell>
        <mxCell id="hx1APyoLTkQgSNQUR30y-130" value="True" style="text;html=1;align=center;verticalAlign=middle;resizable=0;points=[];autosize=1;strokeColor=none;fillColor=none;" parent="1" vertex="1">
          <mxGeometry x="1270" y="1380" width="50" height="30" as="geometry" />
        </mxCell>
        <mxCell id="hx1APyoLTkQgSNQUR30y-132" value="True" style="text;html=1;align=center;verticalAlign=middle;resizable=0;points=[];autosize=1;strokeColor=none;fillColor=none;" parent="1" vertex="1">
          <mxGeometry x="1735" y="2308" width="50" height="30" as="geometry" />
        </mxCell>
        <mxCell id="hx1APyoLTkQgSNQUR30y-133" value="False" style="text;html=1;align=center;verticalAlign=middle;resizable=0;points=[];autosize=1;strokeColor=none;fillColor=none;" parent="1" vertex="1">
          <mxGeometry x="1515" y="2298" width="50" height="30" as="geometry" />
        </mxCell>
        <mxCell id="hx1APyoLTkQgSNQUR30y-134" value="True" style="text;html=1;align=center;verticalAlign=middle;resizable=0;points=[];autosize=1;strokeColor=none;fillColor=none;" parent="1" vertex="1">
          <mxGeometry x="1380.5" y="2416" width="50" height="30" as="geometry" />
        </mxCell>
        <mxCell id="hx1APyoLTkQgSNQUR30y-135" value="False" style="text;html=1;align=center;verticalAlign=middle;resizable=0;points=[];autosize=1;strokeColor=none;fillColor=none;" parent="1" vertex="1">
          <mxGeometry x="1162" y="2416" width="50" height="30" as="geometry" />
        </mxCell>
        <mxCell id="hx1APyoLTkQgSNQUR30y-136" value="True" style="text;html=1;align=center;verticalAlign=middle;resizable=0;points=[];autosize=1;strokeColor=none;fillColor=none;" parent="1" vertex="1">
          <mxGeometry x="1142.19" y="2508" width="50" height="30" as="geometry" />
        </mxCell>
        <mxCell id="hx1APyoLTkQgSNQUR30y-137" value="False" style="text;html=1;align=center;verticalAlign=middle;resizable=0;points=[];autosize=1;strokeColor=none;fillColor=none;" parent="1" vertex="1">
          <mxGeometry x="912" y="2513" width="50" height="30" as="geometry" />
        </mxCell>
        <mxCell id="hx1APyoLTkQgSNQUR30y-138" value="True" style="text;html=1;align=center;verticalAlign=middle;resizable=0;points=[];autosize=1;strokeColor=none;fillColor=none;" parent="1" vertex="1">
          <mxGeometry x="847.31" y="2599" width="50" height="30" as="geometry" />
        </mxCell>
        <mxCell id="hx1APyoLTkQgSNQUR30y-139" value="False" style="text;html=1;align=center;verticalAlign=middle;resizable=0;points=[];autosize=1;strokeColor=none;fillColor=none;" parent="1" vertex="1">
          <mxGeometry x="700" y="2599" width="50" height="30" as="geometry" />
        </mxCell>
        <mxCell id="hx1APyoLTkQgSNQUR30y-140" value="True" style="text;html=1;align=center;verticalAlign=middle;resizable=0;points=[];autosize=1;strokeColor=none;fillColor=none;" parent="1" vertex="1">
          <mxGeometry x="598" y="2696" width="50" height="30" as="geometry" />
        </mxCell>
        <mxCell id="hx1APyoLTkQgSNQUR30y-141" value="False" style="text;html=1;align=center;verticalAlign=middle;resizable=0;points=[];autosize=1;strokeColor=none;fillColor=none;" parent="1" vertex="1">
          <mxGeometry x="460" y="2683" width="50" height="30" as="geometry" />
        </mxCell>
        <mxCell id="hx1APyoLTkQgSNQUR30y-142" value="True" style="text;html=1;align=center;verticalAlign=middle;resizable=0;points=[];autosize=1;strokeColor=none;fillColor=none;" parent="1" vertex="1">
          <mxGeometry x="480" y="1730" width="50" height="30" as="geometry" />
        </mxCell>
        <mxCell id="Jy2GWXh8RBpag4Zw7KA4-7" value="" style="edgeStyle=orthogonalEdgeStyle;rounded=0;orthogonalLoop=1;jettySize=auto;html=1;" parent="1" source="Jy2GWXh8RBpag4Zw7KA4-1" target="Jy2GWXh8RBpag4Zw7KA4-6" edge="1">
          <mxGeometry relative="1" as="geometry" />
        </mxCell>
        <mxCell id="Jy2GWXh8RBpag4Zw7KA4-9" value="" style="edgeStyle=orthogonalEdgeStyle;rounded=0;orthogonalLoop=1;jettySize=auto;html=1;" parent="1" source="Jy2GWXh8RBpag4Zw7KA4-1" target="Jy2GWXh8RBpag4Zw7KA4-8" edge="1">
          <mxGeometry relative="1" as="geometry" />
        </mxCell>
        <mxCell id="Jy2GWXh8RBpag4Zw7KA4-1" value="If (pos &amp;gt; 0)" style="rhombus;whiteSpace=wrap;html=1;" parent="1" vertex="1">
          <mxGeometry x="1860" y="2400" width="80" height="80" as="geometry" />
        </mxCell>
        <mxCell id="Jy2GWXh8RBpag4Zw7KA4-4" value="" style="edgeStyle=orthogonalEdgeStyle;rounded=0;orthogonalLoop=1;jettySize=auto;html=1;" parent="1" source="bYialJ0p8NS-JbuUhh9z-1" target="Jy2GWXh8RBpag4Zw7KA4-5" edge="1">
          <mxGeometry relative="1" as="geometry">
            <mxPoint x="420" as="sourcePoint" />
            <mxPoint x="420" y="360" as="targetPoint" />
          </mxGeometry>
        </mxCell>
        <mxCell id="Jy2GWXh8RBpag4Zw7KA4-5" value="Array [max]" style="shape=cylinder3;whiteSpace=wrap;html=1;boundedLbl=1;backgroundOutline=1;size=15;" parent="1" vertex="1">
          <mxGeometry x="390" y="40" width="60" height="80" as="geometry" />
        </mxCell>
        <mxCell id="Jy2GWXh8RBpag4Zw7KA4-11" style="edgeStyle=orthogonalEdgeStyle;rounded=0;orthogonalLoop=1;jettySize=auto;html=1;exitX=0.5;exitY=1;exitDx=0;exitDy=0;" parent="1" source="Jy2GWXh8RBpag4Zw7KA4-6" edge="1">
          <mxGeometry relative="1" as="geometry">
            <mxPoint x="2030" y="2680" as="targetPoint" />
          </mxGeometry>
        </mxCell>
        <mxCell id="Jy2GWXh8RBpag4Zw7KA4-6" value="Tampilkan Menu" style="shape=parallelogram;perimeter=parallelogramPerimeter;whiteSpace=wrap;html=1;fixedSize=1;" parent="1" vertex="1">
          <mxGeometry x="1970" y="2505" width="120" height="60" as="geometry" />
        </mxCell>
        <mxCell id="Jy2GWXh8RBpag4Zw7KA4-10" style="edgeStyle=orthogonalEdgeStyle;rounded=0;orthogonalLoop=1;jettySize=auto;html=1;exitX=0.5;exitY=1;exitDx=0;exitDy=0;" parent="1" source="Jy2GWXh8RBpag4Zw7KA4-8" edge="1">
          <mxGeometry relative="1" as="geometry">
            <mxPoint x="1760" y="2680" as="targetPoint" />
          </mxGeometry>
        </mxCell>
        <mxCell id="Jy2GWXh8RBpag4Zw7KA4-8" value="DataBase kosong" style="shape=parallelogram;perimeter=parallelogramPerimeter;whiteSpace=wrap;html=1;fixedSize=1;" parent="1" vertex="1">
          <mxGeometry x="1700" y="2500" width="120" height="60" as="geometry" />
        </mxCell>
        <mxCell id="Jy2GWXh8RBpag4Zw7KA4-12" value="" style="endArrow=none;html=1;rounded=0;" parent="1" edge="1">
          <mxGeometry width="50" height="50" relative="1" as="geometry">
            <mxPoint x="1760" y="2680" as="sourcePoint" />
            <mxPoint x="2030" y="2680" as="targetPoint" />
          </mxGeometry>
        </mxCell>
        <mxCell id="Jy2GWXh8RBpag4Zw7KA4-16" style="edgeStyle=orthogonalEdgeStyle;rounded=0;orthogonalLoop=1;jettySize=auto;html=1;exitX=1;exitY=0.5;exitDx=0;exitDy=0;entryX=0.5;entryY=0;entryDx=0;entryDy=0;" parent="1" source="Jy2GWXh8RBpag4Zw7KA4-13" target="Jy2GWXh8RBpag4Zw7KA4-15" edge="1">
          <mxGeometry relative="1" as="geometry" />
        </mxCell>
        <mxCell id="Jy2GWXh8RBpag4Zw7KA4-21" style="edgeStyle=orthogonalEdgeStyle;rounded=0;orthogonalLoop=1;jettySize=auto;html=1;exitX=0;exitY=0.5;exitDx=0;exitDy=0;" parent="1" source="Jy2GWXh8RBpag4Zw7KA4-13" target="Jy2GWXh8RBpag4Zw7KA4-22" edge="1">
          <mxGeometry relative="1" as="geometry">
            <mxPoint x="1350" y="2560" as="targetPoint" />
          </mxGeometry>
        </mxCell>
        <mxCell id="Jy2GWXh8RBpag4Zw7KA4-13" value="if (pos&amp;gt;max)" style="rhombus;whiteSpace=wrap;html=1;" parent="1" vertex="1">
          <mxGeometry x="1465" y="2470" width="80" height="80" as="geometry" />
        </mxCell>
        <mxCell id="Jy2GWXh8RBpag4Zw7KA4-24" style="edgeStyle=orthogonalEdgeStyle;rounded=0;orthogonalLoop=1;jettySize=auto;html=1;exitX=0.5;exitY=1;exitDx=0;exitDy=0;" parent="1" edge="1">
          <mxGeometry relative="1" as="geometry">
            <mxPoint x="1612.7668421052633" y="2760" as="targetPoint" />
            <mxPoint x="1613.03" y="2647.9999999999995" as="sourcePoint" />
          </mxGeometry>
        </mxCell>
        <mxCell id="Jy2GWXh8RBpag4Zw7KA4-15" value="Masukkan Menu Yang ingin ditambahkan :&amp;nbsp;" style="shape=parallelogram;perimeter=parallelogramPerimeter;whiteSpace=wrap;html=1;fixedSize=1;" parent="1" vertex="1">
          <mxGeometry x="1538" y="2576" width="150" height="72" as="geometry" />
        </mxCell>
        <mxCell id="Jy2GWXh8RBpag4Zw7KA4-17" value="True" style="text;html=1;align=center;verticalAlign=middle;resizable=0;points=[];autosize=1;strokeColor=none;fillColor=none;" parent="1" vertex="1">
          <mxGeometry x="1550" y="2480" width="50" height="30" as="geometry" />
        </mxCell>
        <mxCell id="Jy2GWXh8RBpag4Zw7KA4-18" value="True" style="text;html=1;align=center;verticalAlign=middle;resizable=0;points=[];autosize=1;strokeColor=none;fillColor=none;" parent="1" vertex="1">
          <mxGeometry x="1950" y="2416" width="50" height="30" as="geometry" />
        </mxCell>
        <mxCell id="Jy2GWXh8RBpag4Zw7KA4-19" value="False" style="text;html=1;align=center;verticalAlign=middle;resizable=0;points=[];autosize=1;strokeColor=none;fillColor=none;" parent="1" vertex="1">
          <mxGeometry x="1785" y="2416" width="50" height="30" as="geometry" />
        </mxCell>
        <mxCell id="Jy2GWXh8RBpag4Zw7KA4-20" value="False" style="text;html=1;align=center;verticalAlign=middle;resizable=0;points=[];autosize=1;strokeColor=none;fillColor=none;" parent="1" vertex="1">
          <mxGeometry x="1380.5" y="2480" width="50" height="30" as="geometry" />
        </mxCell>
        <mxCell id="Jy2GWXh8RBpag4Zw7KA4-23" style="edgeStyle=orthogonalEdgeStyle;rounded=0;orthogonalLoop=1;jettySize=auto;html=1;exitX=0.5;exitY=1;exitDx=0;exitDy=0;" parent="1" source="Jy2GWXh8RBpag4Zw7KA4-22" edge="1">
          <mxGeometry relative="1" as="geometry">
            <mxPoint x="1389.5789473684213" y="2760" as="targetPoint" />
          </mxGeometry>
        </mxCell>
        <mxCell id="Jy2GWXh8RBpag4Zw7KA4-22" value="DataBase udah Penuh" style="shape=parallelogram;perimeter=parallelogramPerimeter;whiteSpace=wrap;html=1;fixedSize=1;" parent="1" vertex="1">
          <mxGeometry x="1330" y="2578" width="120" height="60" as="geometry" />
        </mxCell>
        <mxCell id="Jy2GWXh8RBpag4Zw7KA4-25" value="" style="endArrow=none;html=1;rounded=0;" parent="1" edge="1">
          <mxGeometry width="50" height="50" relative="1" as="geometry">
            <mxPoint x="1390" y="2760" as="sourcePoint" />
            <mxPoint x="1610" y="2760" as="targetPoint" />
          </mxGeometry>
        </mxCell>
        <mxCell id="Jy2GWXh8RBpag4Zw7KA4-30" value="" style="edgeStyle=orthogonalEdgeStyle;rounded=0;orthogonalLoop=1;jettySize=auto;html=1;" parent="1" source="Jy2GWXh8RBpag4Zw7KA4-28" target="Jy2GWXh8RBpag4Zw7KA4-29" edge="1">
          <mxGeometry relative="1" as="geometry" />
        </mxCell>
        <mxCell id="Jy2GWXh8RBpag4Zw7KA4-34" value="" style="edgeStyle=orthogonalEdgeStyle;rounded=0;orthogonalLoop=1;jettySize=auto;html=1;" parent="1" source="Jy2GWXh8RBpag4Zw7KA4-28" edge="1">
          <mxGeometry relative="1" as="geometry">
            <mxPoint x="782.3869230769228" y="2880" as="targetPoint" />
          </mxGeometry>
        </mxCell>
        <mxCell id="Jy2GWXh8RBpag4Zw7KA4-28" value="If (index &amp;lt; 1 or index &amp;gt; pos)" style="rhombus;whiteSpace=wrap;html=1;" parent="1" vertex="1">
          <mxGeometry x="847.31" y="2789" width="120" height="82" as="geometry" />
        </mxCell>
        <mxCell id="Jy2GWXh8RBpag4Zw7KA4-36" style="edgeStyle=orthogonalEdgeStyle;rounded=0;orthogonalLoop=1;jettySize=auto;html=1;exitX=0.5;exitY=1;exitDx=0;exitDy=0;" parent="1" source="Jy2GWXh8RBpag4Zw7KA4-29" edge="1">
          <mxGeometry relative="1" as="geometry">
            <mxPoint x="1069.918695652174" y="3000" as="targetPoint" />
          </mxGeometry>
        </mxCell>
        <mxCell id="Jy2GWXh8RBpag4Zw7KA4-29" value="Menu batagor Berhasil di hapus" style="shape=parallelogram;perimeter=parallelogramPerimeter;whiteSpace=wrap;html=1;fixedSize=1;" parent="1" vertex="1">
          <mxGeometry x="1010.31" y="2880" width="120" height="60" as="geometry" />
        </mxCell>
        <mxCell id="Jy2GWXh8RBpag4Zw7KA4-32" value="" style="edgeStyle=orthogonalEdgeStyle;rounded=0;orthogonalLoop=1;jettySize=auto;html=1;" parent="1" source="hx1APyoLTkQgSNQUR30y-92" target="Jy2GWXh8RBpag4Zw7KA4-31" edge="1">
          <mxGeometry relative="1" as="geometry">
            <mxPoint x="722.31" y="2638" as="sourcePoint" />
            <mxPoint x="897.31" y="2688" as="targetPoint" />
          </mxGeometry>
        </mxCell>
        <mxCell id="Jy2GWXh8RBpag4Zw7KA4-31" value="Masukkan Indeks menu batagor yang ingin di hapus:&amp;nbsp;" style="shape=parallelogram;perimeter=parallelogramPerimeter;whiteSpace=wrap;html=1;fixedSize=1;" parent="1" vertex="1">
          <mxGeometry x="847.31" y="2683" width="120" height="60" as="geometry" />
        </mxCell>
        <mxCell id="Jy2GWXh8RBpag4Zw7KA4-35" style="edgeStyle=orthogonalEdgeStyle;rounded=0;orthogonalLoop=1;jettySize=auto;html=1;exitX=0.5;exitY=1;exitDx=0;exitDy=0;" parent="1" edge="1">
          <mxGeometry relative="1" as="geometry">
            <mxPoint x="782.0926086956522" y="3000" as="targetPoint" />
            <mxPoint x="782.31" y="2940" as="sourcePoint" />
          </mxGeometry>
        </mxCell>
        <mxCell id="Jy2GWXh8RBpag4Zw7KA4-33" value="pilihan tidak di temukan" style="shape=parallelogram;perimeter=parallelogramPerimeter;whiteSpace=wrap;html=1;fixedSize=1;" parent="1" vertex="1">
          <mxGeometry x="720" y="2880" width="120" height="60" as="geometry" />
        </mxCell>
        <mxCell id="Jy2GWXh8RBpag4Zw7KA4-37" value="" style="endArrow=none;html=1;rounded=0;" parent="1" edge="1">
          <mxGeometry width="50" height="50" relative="1" as="geometry">
            <mxPoint x="777.31" y="3000" as="sourcePoint" />
            <mxPoint x="1067.31" y="3000" as="targetPoint" />
          </mxGeometry>
        </mxCell>
        <mxCell id="Jy2GWXh8RBpag4Zw7KA4-44" value="" style="endArrow=none;html=1;rounded=0;" parent="1" edge="1">
          <mxGeometry width="50" height="50" relative="1" as="geometry">
            <mxPoint x="480" y="3000" as="sourcePoint" />
            <mxPoint x="650" y="3000" as="targetPoint" />
          </mxGeometry>
        </mxCell>
        <mxCell id="Jy2GWXh8RBpag4Zw7KA4-46" value="" style="endArrow=classic;html=1;rounded=0;" parent="1" edge="1">
          <mxGeometry width="50" height="50" relative="1" as="geometry">
            <mxPoint x="560" y="3000" as="sourcePoint" />
            <mxPoint x="560" y="3120" as="targetPoint" />
          </mxGeometry>
        </mxCell>
        <mxCell id="LiYuRrTCJ78NySymOLZK-8" value="" style="edgeStyle=orthogonalEdgeStyle;rounded=0;orthogonalLoop=1;jettySize=auto;html=1;" parent="1" source="LiYuRrTCJ78NySymOLZK-1" target="LiYuRrTCJ78NySymOLZK-7" edge="1">
          <mxGeometry relative="1" as="geometry" />
        </mxCell>
        <mxCell id="LiYuRrTCJ78NySymOLZK-1" value="Selamat login&lt;br&gt;1. Login&lt;br&gt;2. Keluar" style="shape=parallelogram;perimeter=parallelogramPerimeter;whiteSpace=wrap;html=1;fixedSize=1;" parent="1" vertex="1">
          <mxGeometry x="1084.69" y="445" width="165" height="70" as="geometry" />
        </mxCell>
        <mxCell id="LiYuRrTCJ78NySymOLZK-14" value="" style="edgeStyle=orthogonalEdgeStyle;rounded=0;orthogonalLoop=1;jettySize=auto;html=1;" parent="1" source="LiYuRrTCJ78NySymOLZK-4" target="hx1APyoLTkQgSNQUR30y-11" edge="1">
          <mxGeometry relative="1" as="geometry" />
        </mxCell>
        <mxCell id="p2FYPpWxE4UHpi1m3FIb-2" value="" style="edgeStyle=orthogonalEdgeStyle;rounded=0;orthogonalLoop=1;jettySize=auto;html=1;" edge="1" parent="1" source="LiYuRrTCJ78NySymOLZK-4" target="p2FYPpWxE4UHpi1m3FIb-1">
          <mxGeometry relative="1" as="geometry" />
        </mxCell>
        <mxCell id="LiYuRrTCJ78NySymOLZK-4" value="If pilih == &quot;1&quot;" style="rhombus;whiteSpace=wrap;html=1;" parent="1" vertex="1">
          <mxGeometry x="1127.19" y="640" width="80" height="80" as="geometry" />
        </mxCell>
        <mxCell id="LiYuRrTCJ78NySymOLZK-9" value="" style="edgeStyle=orthogonalEdgeStyle;rounded=0;orthogonalLoop=1;jettySize=auto;html=1;" parent="1" source="LiYuRrTCJ78NySymOLZK-7" target="LiYuRrTCJ78NySymOLZK-4" edge="1">
          <mxGeometry relative="1" as="geometry" />
        </mxCell>
        <mxCell id="LiYuRrTCJ78NySymOLZK-7" value="Masukkan Pilihan Anda:" style="shape=parallelogram;perimeter=parallelogramPerimeter;whiteSpace=wrap;html=1;fixedSize=1;" parent="1" vertex="1">
          <mxGeometry x="1107.19" y="550" width="120" height="60" as="geometry" />
        </mxCell>
        <mxCell id="hx1APyoLTkQgSNQUR30y-77" value="Int coba, pos = 0" style="html=1;whiteSpace=wrap;aspect=fixed;shape=isoRectangle;" parent="1" vertex="1">
          <mxGeometry x="345" y="250" width="150" height="90" as="geometry" />
        </mxCell>
        <mxCell id="LiYuRrTCJ78NySymOLZK-12" style="edgeStyle=orthogonalEdgeStyle;rounded=0;orthogonalLoop=1;jettySize=auto;html=1;exitX=0.5;exitY=1;exitDx=0;exitDy=0;exitPerimeter=0;entryX=0.5;entryY=-0.005;entryDx=0;entryDy=0;entryPerimeter=0;" parent="1" source="Jy2GWXh8RBpag4Zw7KA4-5" target="hx1APyoLTkQgSNQUR30y-76" edge="1">
          <mxGeometry relative="1" as="geometry" />
        </mxCell>
        <mxCell id="LiYuRrTCJ78NySymOLZK-13" value="" style="endArrow=classic;html=1;rounded=0;" parent="1" target="hx1APyoLTkQgSNQUR30y-77" edge="1">
          <mxGeometry width="50" height="50" relative="1" as="geometry">
            <mxPoint x="418" y="240" as="sourcePoint" />
            <mxPoint x="490" y="280" as="targetPoint" />
          </mxGeometry>
        </mxCell>
        <mxCell id="LiYuRrTCJ78NySymOLZK-15" style="edgeStyle=orthogonalEdgeStyle;rounded=0;orthogonalLoop=1;jettySize=auto;html=1;exitX=0.5;exitY=1;exitDx=0;exitDy=0;entryX=0.53;entryY=0.038;entryDx=0;entryDy=0;entryPerimeter=0;" parent="1" source="hx1APyoLTkQgSNQUR30y-13" target="hx1APyoLTkQgSNQUR30y-75" edge="1">
          <mxGeometry relative="1" as="geometry" />
        </mxCell>
        <mxCell id="LiYuRrTCJ78NySymOLZK-16" value="" style="endArrow=classic;html=1;rounded=0;entryX=0.5;entryY=0;entryDx=0;entryDy=0;" parent="1" source="hx1APyoLTkQgSNQUR30y-75" target="hx1APyoLTkQgSNQUR30y-15" edge="1">
          <mxGeometry width="50" height="50" relative="1" as="geometry">
            <mxPoint x="1130" y="1060" as="sourcePoint" />
            <mxPoint x="1180" y="1010" as="targetPoint" />
          </mxGeometry>
        </mxCell>
        <mxCell id="LiYuRrTCJ78NySymOLZK-19" value="" style="endArrow=none;html=1;rounded=0;" parent="1" edge="1">
          <mxGeometry width="50" height="50" relative="1" as="geometry">
            <mxPoint x="660" y="1640" as="sourcePoint" />
            <mxPoint x="1354.38" y="1640" as="targetPoint" />
          </mxGeometry>
        </mxCell>
        <mxCell id="LiYuRrTCJ78NySymOLZK-20" value="" style="endArrow=classic;html=1;rounded=0;" parent="1" edge="1">
          <mxGeometry width="50" height="50" relative="1" as="geometry">
            <mxPoint x="1353" y="1640" as="sourcePoint" />
            <mxPoint x="1343" y="1640" as="targetPoint" />
          </mxGeometry>
        </mxCell>
        <mxCell id="LiYuRrTCJ78NySymOLZK-21" value="True" style="text;html=1;align=center;verticalAlign=middle;resizable=0;points=[];autosize=1;strokeColor=none;fillColor=none;" parent="1" vertex="1">
          <mxGeometry x="980" y="2804" width="50" height="30" as="geometry" />
        </mxCell>
        <mxCell id="LiYuRrTCJ78NySymOLZK-22" value="False" style="text;html=1;align=center;verticalAlign=middle;resizable=0;points=[];autosize=1;strokeColor=none;fillColor=none;" parent="1" vertex="1">
          <mxGeometry x="792.31" y="2800" width="50" height="30" as="geometry" />
        </mxCell>
        <mxCell id="LiYuRrTCJ78NySymOLZK-23" value="" style="endArrow=classic;html=1;rounded=0;" parent="1" edge="1">
          <mxGeometry width="50" height="50" relative="1" as="geometry">
            <mxPoint x="1260" y="1640" as="sourcePoint" />
            <mxPoint x="1260" y="1680" as="targetPoint" />
          </mxGeometry>
        </mxCell>
        <mxCell id="LiYuRrTCJ78NySymOLZK-26" value="" style="endArrow=classic;html=1;rounded=0;" parent="1" edge="1">
          <mxGeometry width="50" height="50" relative="1" as="geometry">
            <mxPoint x="440" y="1680" as="sourcePoint" />
            <mxPoint x="440" y="1650" as="targetPoint" />
          </mxGeometry>
        </mxCell>
        <mxCell id="LiYuRrTCJ78NySymOLZK-27" value="" style="endArrow=classic;html=1;rounded=0;" parent="1" edge="1">
          <mxGeometry width="50" height="50" relative="1" as="geometry">
            <mxPoint x="1260" y="1680" as="sourcePoint" />
            <mxPoint x="1240" y="1680" as="targetPoint" />
          </mxGeometry>
        </mxCell>
        <mxCell id="p2FYPpWxE4UHpi1m3FIb-6" value="" style="edgeStyle=orthogonalEdgeStyle;rounded=0;orthogonalLoop=1;jettySize=auto;html=1;" edge="1" parent="1" source="p2FYPpWxE4UHpi1m3FIb-1" target="p2FYPpWxE4UHpi1m3FIb-5">
          <mxGeometry relative="1" as="geometry" />
        </mxCell>
        <mxCell id="p2FYPpWxE4UHpi1m3FIb-8" value="" style="edgeStyle=orthogonalEdgeStyle;rounded=0;orthogonalLoop=1;jettySize=auto;html=1;" edge="1" parent="1" source="p2FYPpWxE4UHpi1m3FIb-1" target="p2FYPpWxE4UHpi1m3FIb-7">
          <mxGeometry relative="1" as="geometry" />
        </mxCell>
        <mxCell id="p2FYPpWxE4UHpi1m3FIb-1" value="If pilih == &quot;2&quot;" style="rhombus;whiteSpace=wrap;html=1;" vertex="1" parent="1">
          <mxGeometry x="640" y="745" width="80" height="80" as="geometry" />
        </mxCell>
        <mxCell id="p2FYPpWxE4UHpi1m3FIb-11" style="edgeStyle=orthogonalEdgeStyle;rounded=0;orthogonalLoop=1;jettySize=auto;html=1;exitX=0.5;exitY=1;exitDx=0;exitDy=0;" edge="1" parent="1" source="p2FYPpWxE4UHpi1m3FIb-5">
          <mxGeometry relative="1" as="geometry">
            <mxPoint x="802" y="1100" as="targetPoint" />
          </mxGeometry>
        </mxCell>
        <mxCell id="p2FYPpWxE4UHpi1m3FIb-5" value="Keluar dari program" style="shape=parallelogram;perimeter=parallelogramPerimeter;whiteSpace=wrap;html=1;fixedSize=1;" vertex="1" parent="1">
          <mxGeometry x="742.31" y="860" width="120" height="60" as="geometry" />
        </mxCell>
        <mxCell id="p2FYPpWxE4UHpi1m3FIb-12" style="edgeStyle=orthogonalEdgeStyle;rounded=0;orthogonalLoop=1;jettySize=auto;html=1;exitX=0.5;exitY=1;exitDx=0;exitDy=0;" edge="1" parent="1" source="p2FYPpWxE4UHpi1m3FIb-7">
          <mxGeometry relative="1" as="geometry">
            <mxPoint x="538" y="1100" as="targetPoint" />
          </mxGeometry>
        </mxCell>
        <mxCell id="p2FYPpWxE4UHpi1m3FIb-7" value="Pilihan TIdak Valid" style="shape=parallelogram;perimeter=parallelogramPerimeter;whiteSpace=wrap;html=1;fixedSize=1;" vertex="1" parent="1">
          <mxGeometry x="478" y="850" width="120" height="60" as="geometry" />
        </mxCell>
        <mxCell id="p2FYPpWxE4UHpi1m3FIb-13" value="" style="endArrow=none;html=1;rounded=0;" edge="1" parent="1">
          <mxGeometry width="50" height="50" relative="1" as="geometry">
            <mxPoint x="540" y="1100" as="sourcePoint" />
            <mxPoint x="800" y="1100" as="targetPoint" />
          </mxGeometry>
        </mxCell>
        <mxCell id="p2FYPpWxE4UHpi1m3FIb-14" value="" style="endArrow=classic;html=1;rounded=0;" edge="1" parent="1">
          <mxGeometry width="50" height="50" relative="1" as="geometry">
            <mxPoint x="660" y="1100" as="sourcePoint" />
            <mxPoint x="660" y="1640" as="targetPoint" />
          </mxGeometry>
        </mxCell>
        <mxCell id="p2FYPpWxE4UHpi1m3FIb-15" value="" style="endArrow=classic;html=1;rounded=0;" edge="1" parent="1">
          <mxGeometry width="50" height="50" relative="1" as="geometry">
            <mxPoint x="660" y="1640" as="sourcePoint" />
            <mxPoint x="670" y="1640" as="targetPoint" />
          </mxGeometry>
        </mxCell>
      </root>
    </mxGraphModel>
  </diagram>
</mxfile>
